<svg width="50" height="50" fill="none" xmlns="http://www.w3.org/2000/svg"><path d="M41.113 28.784c-.666-.656-2.144-1.003-4.394-1.034a36.72 36.72 0 00-5.281.387c-.863-.496-1.753-1.04-2.45-1.693-1.878-1.753-3.447-4.188-4.422-6.866.062-.25.119-.469.169-.694 0 0 1.059-6.009.778-8.04a2.28 2.28 0 00-.138-.575l-.09-.238c-.288-.662-.854-1.365-1.738-1.328l-.534-.015c-.988 0-1.79.503-2 1.259-.64 2.366.022 5.903 1.218 10.484l-.306.747c-.86 2.094-1.934 4.203-2.884 6.063l-.125.24c-1 1.956-1.906 3.616-2.728 5.022l-.847.45c-.063.031-1.516.803-1.856 1.01-2.894 1.728-4.81 3.687-5.129 5.243-.1.497-.025 1.131.488 1.425l.822.413c.346.175.728.268 1.115.269 2.06 0 4.454-2.566 7.75-8.32a77.472 77.472 0 0111.935-2.837c2.894 1.628 6.453 2.76 8.697 2.76.4 0 .744-.038 1.022-.113.411-.1.772-.347 1.015-.694.435-.656.525-1.559.406-2.484a1.66 1.66 0 00-.49-.847l-.003.006zM10.335 39.75c.375-1.028 1.862-3.06 4.062-4.862.138-.113.478-.432.79-.729-2.3 3.67-3.84 5.132-4.852 5.588v.003zm13.028-30c.662 0 1.04 1.669 1.072 3.234.03 1.566-.335 2.666-.788 3.478-.375-1.203-.56-3.1-.56-4.34 0 0-.027-2.372.276-2.372zm-3.888 21.378c.463-.825.94-1.697 1.431-2.622a49.881 49.881 0 002.513-5.484 18.167 18.167 0 004.15 5.153c.203.172.422.347.647.519-3.331.66-6.21 1.46-8.744 2.434h.003zm21-.187c-.203.128-.784.2-1.156.2-1.206 0-2.7-.55-4.79-1.45.802-.06 1.54-.091 2.202-.091 1.21 0 1.57-.006 2.75.297 1.182.303 1.197.916.994 1.04v.004z" fill="#C6461D"/><path d="M44.816 11.184c-1.085-1.478-2.597-3.209-4.257-4.868-1.659-1.66-3.39-3.172-4.868-4.257C33.17.212 31.95 0 31.25 0H7.031a3.912 3.912 0 00-3.906 3.906v42.188A3.912 3.912 0 007.031 50H42.97a3.912 3.912 0 003.906-3.906V15.625c0-.7-.212-1.922-2.06-4.44zm-6.47-2.656c1.5 1.5 2.676 2.85 3.545 3.972h-7.52V4.984c1.123.87 2.476 2.044 3.973 3.544h.003zm5.404 37.566a.79.79 0 01-.781.781H7.03a.79.79 0 01-.781-.781V3.906c0-.422.36-.781.781-.781h24.22v10.938a1.563 1.563 0 001.563 1.562H43.75v30.469z" fill="#C6461D"/></svg>