<svg width="14" height="23" fill="none" xmlns="http://www.w3.org/2000/svg"><path d="M5.917 16.496c-1.705-.177-3.242-.597-4.559-1.627a5.77 5.77 0 01-.48-.394 1.366 1.366 0 011.545-2.229c.133.063.259.137.377.223a7.48 7.48 0 008.287.075c.24-.19.514-.332.808-.416a1.265 1.265 0 011.447.579c.362.579.356 1.157-.087 1.615a6.659 6.659 0 01-2.41 1.56c-.884.317-1.803.522-2.736.61.142.154.208.23.29.32 1.267 1.273 2.538 2.538 3.8 3.817a1.254 1.254 0 01.29 1.48 1.493 1.493 0 01-1.407.868 1.358 1.358 0 01-.898-.446c-.958-.96-1.93-1.907-2.868-2.894-.273-.29-.403-.232-.643 0-.965.99-1.94 1.968-2.924 2.935a1.23 1.23 0 01-1.479.266 1.5 1.5 0 01-.868-1.378c.027-.357.193-.69.463-.926a3337.58 3337.58 0 003.763-3.763c.093-.058.168-.14.29-.275z" fill="#fff"/><path d="M6.957 12.136A5.569 5.569 0 117.02.998a5.569 5.569 0 01-.064 11.138zM9.72 6.564a2.724 2.724 0 10-2.707 2.73 2.715 2.715 0 002.707-2.73z" fill="#fff"/></svg>