<svg width="24" height="14" fill="none" xmlns="http://www.w3.org/2000/svg"><path d="M22.146 13.287c-.515.073-3.02 0-3.15 0a2.463 2.463 0 01-1.736-.691c-.53-.51-1.008-1.072-1.514-1.601a4.555 4.555 0 00-.495-.449c-.414-.315-.822-.243-1.016.243a9.233 9.233 0 00-.313 1.613.868.868 0 01-.9.833 13.43 13.43 0 01-1.022.018 7.817 7.817 0 01-3.54-.869 9.683 9.683 0 01-3.025-2.646 32.001 32.001 0 01-3.352-5.5c-.05-.098-1.025-2.173-1.048-2.269a.579.579 0 01.269-.753c.174-.066 3.39 0 3.442 0a1.123 1.123 0 011.08.78 16.79 16.79 0 002.41 4.22c.14.172.306.324.49.448a.37.37 0 00.62-.188 5.26 5.26 0 00.222-1.288c.018-.868 0-1.447-.049-2.316a1.126 1.126 0 00-1.045-1.19c-.255-.043-.29-.251-.113-.46.339-.431.808-.5 1.317-.527.77-.043 1.543 0 2.316 0h.168c.34 0 .678.033 1.01.102a.92.92 0 01.733.822c.039.218.056.44.052.663-.02.946-.067 1.893-.078 2.842-.007.375.027.75.101 1.118.113.503.457.63.81.263.44-.472.844-.977 1.208-1.511A15.075 15.075 0 0017.6 1.882c.223-.561.394-.686.999-.686h3.413c.203-.003.406.024.602.081a.52.52 0 01.359.672 5.66 5.66 0 01-1.007 1.997c-.695.981-1.425 1.94-2.137 2.895a3.76 3.76 0 00-.246.39c-.266.481-.246.753.14 1.159.619.636 1.282 1.236 1.878 1.89.44.477.837.99 1.187 1.537.44.706.17 1.355-.643 1.47z" fill="#fff"/></svg>