<svg width="22" height="20" fill="none" xmlns="http://www.w3.org/2000/svg"><path d="M21.957 3.342a9.289 9.289 0 01-1.885 2.07.805.805 0 00-.29.628v.072a13.196 13.196 0 01-.85 4.591 13.445 13.445 0 01-2.504 4.198A12.369 12.369 0 0111 18.487a13.575 13.575 0 01-4.267.663c-2.298 0-4.555-.608-6.542-1.763a.376.376 0 01-.18-.416.362.362 0 01.354-.273h.55a8.754 8.754 0 004.903-1.488 4.753 4.753 0 01-3.763-3.23.249.249 0 01.29-.321c.263.05.53.074.799.075h.101A4.756 4.756 0 01.475 7.36a.249.249 0 01.367-.217c.34.19.704.33 1.083.42a4.753 4.753 0 01-.767-5.767.249.249 0 01.408-.034 12.427 12.427 0 008.542 4.567h.024a.18.18 0 00.173-.194 5.023 5.023 0 01.11-1.736 4.604 4.604 0 013.098-3.312c.486-.152.992-.23 1.502-.232a4.736 4.736 0 013.138 1.184c.112.1.257.156.408.157a.623.623 0 00.145-.02 8.685 8.685 0 002.316-.959.246.246 0 01.361.29 4.698 4.698 0 01-1.247 1.988 8.74 8.74 0 001.517-.512.25.25 0 01.304.359z" fill="#fff"/></svg>